<svg width="81" height="81" viewBox="0 0 81 81" fill="none" xmlns="http://www.w3.org/2000/svg">
<rect width="81" height="81" rx="40.5" fill="#E6E6E6"/>
<g clip-path="url(#clip0_461_168)">
<path d="M40 37.1305C38.5916 37.131 37.3255 37.7028 36.3997 38.6352C35.4762 39.5692 34.9058 40.8515 34.9044 42.278C34.9058 43.7054 35.4762 44.9872 36.3997 45.9196C37.3255 46.8531 38.5916 47.4254 40 47.4254C41.4068 47.4254 42.6744 46.8531 43.5996 45.9196C44.524 44.9873 45.0945 43.7054 45.095 42.278C45.0946 40.8515 44.5235 39.5692 43.5996 38.6352C42.6744 37.7028 41.4068 37.131 40 37.1305ZM40 45.4515C38.2623 45.4515 36.8542 44.0315 36.8542 42.2779C36.8542 40.5248 38.2623 39.1043 40 39.1043C41.7377 39.1043 43.1458 40.5248 43.1458 42.2779C43.1458 44.0315 41.7377 45.4515 40 45.4515Z" fill="#5C5C5C"/>
<path d="M54.1079 33.4448C53.5604 32.8904 52.789 32.5415 51.9466 32.5415H48.6416C48.3753 32.5426 48.127 32.3832 48.0127 32.1259L47.0226 29.9095C46.5329 28.8114 45.4443 28.0972 44.236 28.0972H35.764C34.5561 28.0972 33.4672 28.8114 32.9764 29.9095L31.9873 32.1259C31.8729 32.3832 31.6243 32.5426 31.3585 32.5415H28.0534C27.2113 32.5415 26.4386 32.8904 25.89 33.4448C25.3412 33.9976 25 34.7701 25 35.6114V49.8339C25 50.6757 25.3412 51.4477 25.89 52.0004C26.4385 52.5548 27.2116 52.9037 28.0534 52.9027H41.2109H51.9466C52.789 52.9037 53.5604 52.5548 54.1079 52.0004C54.659 51.4477 55 50.6757 55 49.8339V35.6114C55 34.7701 54.659 33.9965 54.1079 33.4448ZM44.8901 47.1992C43.6435 48.4598 41.9085 49.2435 40 49.2435C38.0907 49.2435 36.3565 48.4599 35.1096 47.1992C33.8603 45.9418 33.0868 44.1956 33.0879 42.2779C33.0868 40.3601 33.8604 38.6155 35.1096 37.356C36.3565 36.0963 38.0905 35.3117 40 35.3133C41.9085 35.3117 43.6435 36.0963 44.8901 37.356C46.1394 38.6156 46.9135 40.3601 46.9119 42.2779C46.9135 44.1956 46.1394 45.9418 44.8901 47.1992ZM52.0684 38.0708H49.9711V35.973H52.0684V38.0708Z" fill="#5C5C5C"/>
</g>
<defs>
<clipPath id="clip0_461_168">
<rect width="30" height="30" fill="white" transform="translate(25 25.5)"/>
</clipPath>
</defs>
</svg>
