<svg width="20" height="20" viewBox="0 0 20 20" fill="none" xmlns="http://www.w3.org/2000/svg">
<g clip-path="url(#clip0_272_138)">
<path d="M9.68221e-07 7.50936C0.0344153 7.56757 0.852346 9.02147 2.49969 10.5024C2.83625 10.8043 3.21 11.1067 3.61703 11.398L2.6202 13.1248C2.37949 13.5419 2.52211 14.0755 2.93957 14.3165L3.00348 14.353C3.42063 14.594 3.95418 14.4511 4.19512 14.034L5.17152 12.3424C5.31524 12.4148 5.46164 12.4855 5.61192 12.553C6.62981 13.0122 7.79633 13.3455 9.0907 13.4548L9.0907 15.5619C9.0907 16.0435 9.48137 16.4342 9.96301 16.4342L10.0368 16.4342C10.5187 16.4342 10.9093 16.0435 10.9093 15.5619L10.9093 13.4548C12.2037 13.3453 13.3702 13.0122 14.3884 12.553C14.5389 12.4849 14.6813 12.4106 14.8258 12.3374L15.8049 14.0339C16.0459 14.4511 16.5794 14.594 16.9966 14.353L17.0605 14.3164C17.4779 14.0755 17.6205 13.5419 17.3798 13.1248L16.3824 11.3974C17.288 10.7496 18.0205 10.0448 18.5811 9.41838C19.5069 8.38112 19.9749 7.55331 20 7.50936L18.8542 6.86545L18.3201 6.56276L18.3193 6.5644L18.3188 6.56495C18.2838 6.62862 17.5248 7.91999 16.1124 9.15589C15.4065 9.77495 14.5402 10.3798 13.5234 10.8273C12.5052 11.2748 11.3393 11.5679 10.0001 11.5684C8.62867 11.5679 7.43895 11.2606 6.40406 10.795C4.85399 10.0978 3.65715 9.03049 2.85695 8.13358C2.45676 7.68581 2.15625 7.2826 1.95926 6.99682C1.86035 6.85397 1.7877 6.74034 1.74125 6.66518C1.71828 6.62749 1.70137 6.5996 1.69125 6.58241L1.68113 6.56491L1.67949 6.56245L1.30027 6.77799L1.68059 6.56436L9.68221e-07 7.50936Z" fill="#4B4B4B"/>
</g>
<defs>
<clipPath id="clip0_272_138">
<rect width="20" height="20" fill="white" transform="translate(20 20) rotate(180)"/>
</clipPath>
</defs>
</svg>
