<svg width="15" height="15" viewBox="0 0 15 15" fill="none" xmlns="http://www.w3.org/2000/svg">
<path d="M12.3633 0.0392399C9.23813 0.478529 6.24617 6.45126 4.77352 9.21566C4.40318 9.91096 5.04956 10.2723 5.43042 9.60737C5.70417 9.12937 6.37112 7.74206 6.73185 7.81387C8.45443 8.10626 9.37315 6.96188 8.72086 6.24187C10.9122 6.28756 11.9985 5.05974 11.3768 4.31361C12.0305 4.52441 12.9904 4.49361 13.8309 4.02683C15.6249 3.0298 15.5164 -0.403779 12.3633 0.0392399Z" fill="#828282"/>
<path d="M11.988 6.03901C11.7033 6.31182 11.1961 6.69981 10.7708 6.86909V13.0489C10.7703 13.1864 10.7186 13.3035 10.6307 13.394C10.5419 13.4835 10.427 13.5362 10.2924 13.5366H1.91485C1.78026 13.5362 1.66492 13.4835 1.57609 13.394C1.4882 13.3035 1.43646 13.1864 1.43602 13.0489V4.51506C1.43649 4.37795 1.4882 4.26046 1.57609 4.16997C1.66489 4.08043 1.78026 4.02772 1.91485 4.02728H6.61383C6.94296 3.51618 7.27987 3.02514 7.62411 2.56439H1.91485C1.38842 2.56392 0.905015 2.78357 0.560775 3.13566C0.215627 3.48634 -0.000438694 3.97878 7.61176e-07 4.51506V13.0489C-0.000467991 13.5851 0.215598 14.0776 0.560775 14.4287C0.905015 14.7803 1.38842 15.0004 1.91485 15H10.2924C10.8184 15.0005 11.3018 14.7803 11.6465 14.4287C11.9917 14.0776 12.2077 13.5851 12.2073 13.0489V6.00824C12.2073 6.00824 12.129 5.90378 11.988 6.03901Z" fill="#828282"/>
</svg>
