<svg width="20" height="17" viewBox="0 0 20 17" fill="none" xmlns="http://www.w3.org/2000/svg">
<g clip-path="url(#clip0_272_25)">
<path d="M20 8.92484C19.9656 8.86664 19.1477 7.41273 17.5003 5.9318C17.1637 5.62992 16.79 5.3275 16.383 5.03625L17.3798 3.30941C17.6205 2.89227 17.4779 2.35871 17.0604 2.11773L16.9965 2.08117C16.5794 1.8402 16.0458 1.98309 15.8049 2.40023L14.8285 4.09184C14.6848 4.01945 14.5384 3.94867 14.3881 3.88121C13.3702 3.42199 12.2037 3.08867 10.9093 2.97941V0.872304C10.9093 0.390664 10.5186 0 10.037 0H9.96324C9.48133 0 9.09066 0.390664 9.09066 0.872304V2.97941C7.79629 3.08895 6.62977 3.42199 5.6116 3.88121C5.46105 3.94926 5.31871 4.02355 5.17422 4.09676L4.19512 2.40027C3.95414 1.98312 3.42059 1.84019 3.00344 2.08121L2.93953 2.11777C2.52211 2.35871 2.37949 2.8923 2.62016 3.30945L3.61758 5.03684C2.71195 5.68457 1.97953 6.38938 1.41895 7.01582C0.493125 8.05309 0.0251172 8.8809 0 8.92484L1.14578 9.56875L1.67988 9.87144L1.6807 9.8698L1.68125 9.86926C1.71621 9.80558 2.47516 8.51422 3.88758 7.27832C4.59348 6.65926 5.45977 6.05441 6.47656 5.60695C7.49477 5.15945 8.66074 4.86633 9.99992 4.86578C11.3713 4.86633 12.5611 5.17363 13.5959 5.63918C15.146 6.33637 16.3429 7.40371 17.143 8.30062C17.5432 8.7484 17.8438 9.1516 18.0407 9.43738C18.1396 9.58023 18.2123 9.69387 18.2588 9.76902C18.2817 9.80672 18.2986 9.83461 18.3088 9.8518L18.3189 9.8693L18.3205 9.87176L18.6997 9.65621L18.3194 9.86984L20 8.92484Z" fill="#5C5C5C"/>
<path d="M9.99994 9.87177C8.13623 9.87177 6.62549 11.3825 6.62549 13.2465C6.62549 15.1102 8.13623 16.6209 9.99994 16.6209C11.8639 16.6209 13.3747 15.1102 13.3747 13.2465C13.3747 11.3825 11.8639 9.87177 9.99994 9.87177Z" fill="#5C5C5C"/>
</g>
<defs>
<clipPath id="clip0_272_25">
<rect width="20" height="16.6209" fill="white"/>
</clipPath>
</defs>
</svg>
