<svg width="36" height="20" viewBox="0 0 36 20" fill="none" xmlns="http://www.w3.org/2000/svg">
<path d="M22.033 8.75016H19.6897C19.4468 8.75016 19.2499 8.55316 19.2499 8.31039V5.96695C19.2499 5.72418 19.0531 5.52734 18.8102 5.52734H17.1897C16.9468 5.52734 16.7499 5.72418 16.7499 5.96695V8.31039C16.7499 8.55316 16.5531 8.75016 16.3102 8.75016H13.967C13.724 8.75016 13.5272 8.94699 13.5272 9.18992V10.8104C13.5272 11.0532 13.724 11.2502 13.967 11.2502H16.3102C16.5531 11.2502 16.7499 11.447 16.7499 11.6899V14.033C16.7499 14.276 16.9468 14.4728 17.1897 14.4728H18.8102C19.0531 14.4728 19.2499 14.276 19.2499 14.033V11.6899C19.2499 11.447 19.4468 11.2502 19.6897 11.2502H22.033C22.2758 11.2502 22.4727 11.0532 22.4727 10.8104V9.18992C22.4727 8.94699 22.2758 8.75016 22.033 8.75016Z" fill="#828282"/>
<path d="M18 0C12.4771 0 8 4.47723 8 10C8 15.5229 12.4771 20 18 20C23.5228 20 28 15.5229 28 10C28 4.47723 23.5228 0 18 0ZM18 17.5C13.8644 17.5 10.5 14.1356 10.5 10C10.5 5.86457 13.8644 2.5 18 2.5C22.1354 2.5 25.5 5.86457 25.5 10C25.5 14.1356 22.1354 17.5 18 17.5Z" fill="#828282"/>
</svg>
