<svg width="10" height="10" viewBox="0 0 10 10" fill="none" xmlns="http://www.w3.org/2000/svg">
<path d="M9.67324 8.27261C9.67324 8.27261 8.33453 7.10167 8.01431 6.78183C7.54433 6.31429 7.3563 6.08913 7.52222 5.70896C8.24791 4.22888 7.99689 2.39149 6.76597 1.16095C5.21841 -0.386982 2.70857 -0.386982 1.16082 1.16095C-0.386938 2.70907 -0.386938 5.21815 1.16082 6.76647C2.39099 7.99665 4.22894 8.24767 5.70845 7.52216C6.08865 7.35644 6.31435 7.54446 6.78171 8.01464C7.10171 8.33466 8.2721 9.67356 8.2721 9.67356C8.87931 10.2804 9.3465 9.90696 9.62695 9.62688C9.90683 9.34661 10.2805 8.87964 9.67324 8.27261ZM5.58623 5.58616C4.68974 6.48208 3.23685 6.48208 2.34074 5.58616C1.44464 4.69024 1.44464 3.23698 2.34074 2.34106C3.23685 1.44515 4.68974 1.44515 5.58623 2.34106C6.48234 3.23698 6.48234 4.69024 5.58623 5.58616Z" fill="#FFBA48"/>
</svg>
