<svg width="20" height="20" viewBox="0 0 20 20" fill="none" xmlns="http://www.w3.org/2000/svg">
<g clip-path="url(#clip0_350_93)">
<path d="M5.76443 12.5074C5.76139 12.4762 5.75162 12.4475 5.75162 12.4164V12.1497C5.75162 12.0227 5.77236 11.8976 5.81389 11.7786C5.81389 11.7786 6.47857 10.8887 6.79291 9.84317C6.44865 9.11685 6.13615 8.21294 6.13615 7.31692C6.13615 7.1088 6.15143 6.90739 6.17279 6.70899C5.7242 6.23903 5.11811 5.9729 4.44853 5.9729C3.06607 5.9729 1.94428 7.10083 1.94428 8.85376C1.94428 10.2563 3.08564 11.7786 3.08564 11.7786C3.12592 11.8976 3.1467 12.0227 3.1467 12.1497V12.4164C3.1467 12.749 2.9526 13.0518 2.64986 13.1903L0.837714 13.9307C0.416543 14.1248 0.116855 14.5117 0.0332613 14.967L0.00212852 15.3656C-0.0137309 15.5731 0.0570504 15.7776 0.198652 15.9296C0.339629 16.0828 0.538027 16.1688 0.746152 16.1688H3.70818L3.82963 14.6082L3.83756 14.5661C3.98588 13.7476 4.52666 13.0518 5.28225 12.7039L5.76443 12.5074Z" fill="#FFBA48"/>
<path d="M19.9667 14.967C19.8837 14.5117 19.584 14.1247 19.1629 13.9307L17.3495 13.1903C17.0468 13.0518 16.8539 12.749 16.8539 12.4164V12.1497C16.8539 12.0227 16.874 11.8976 16.9155 11.7786C16.9155 11.7786 18.0563 10.2563 18.0563 8.85376C18.0563 7.10083 16.9351 5.9729 15.5502 5.9729C14.8819 5.9729 14.2758 6.23903 13.8259 6.71021C13.8479 6.90798 13.8631 7.10876 13.8631 7.31688C13.8631 8.21228 13.5513 9.11622 13.2076 9.84251C13.5214 10.8881 14.1873 11.7786 14.1873 11.7786C14.2275 11.8976 14.2489 12.0227 14.2489 12.1497V12.4164C14.2489 12.4475 14.2385 12.4762 14.2355 12.5073L14.6847 12.6904C15.472 13.0506 16.0128 13.7463 16.163 14.5648L16.1703 14.6075L16.2912 16.1688H19.2544C19.4625 16.1688 19.6609 16.0828 19.8013 15.9296C19.9429 15.7776 20.0137 15.5731 19.9978 15.3656L19.9667 14.967Z" fill="#FFBA48"/>
<path d="M14.3698 13.4613L12.1762 12.5647C11.81 12.3962 11.5762 12.03 11.5762 11.6284V11.3049C11.5762 11.1523 11.6006 11.0004 11.6513 10.8557C11.6513 10.8557 13.0307 9.01489 13.0307 7.31688C13.0307 5.19528 11.6739 3.83118 9.9997 3.83118C8.32611 3.83118 6.96868 5.19532 6.96868 7.31688C6.96868 9.01489 8.34931 10.8557 8.34931 10.8557C8.39876 11.0004 8.42439 11.1523 8.42439 11.3049V11.6284C8.42439 12.03 8.1888 12.3962 7.82318 12.5647L5.62958 13.4613C5.11993 13.695 4.75677 14.1638 4.65669 14.7156L4.54376 16.1688H9.9997H15.4556L15.344 14.7156C15.2426 14.1638 14.8794 13.6951 14.3698 13.4613Z" fill="#FFBA48"/>
</g>
<defs>
<clipPath id="clip0_350_93">
<rect width="20" height="20" fill="white"/>
</clipPath>
</defs>
</svg>
