<svg width="20" height="20" viewBox="0 0 20 20" fill="none" xmlns="http://www.w3.org/2000/svg">
<path d="M19.4363 8.40492L17.2744 7.89461C17.1169 7.34984 16.9035 6.82937 16.6347 6.34258L17.8007 4.45574C17.9792 4.1668 17.9355 3.79379 17.6957 3.55395L16.4461 2.30434C16.2067 2.06492 15.8337 2.02121 15.5447 2.19973L13.6583 3.36578C13.1715 3.09695 12.6511 2.88359 12.1063 2.72605L11.5959 0.563242C11.5178 0.233516 11.2229 0 10.884 0H9.11691C8.77793 0 8.48305 0.233516 8.40492 0.563242L7.89461 2.72605C7.34984 2.88355 6.82937 3.09652 6.34258 3.36578L4.45574 2.19891C4.16719 2.02121 3.79379 2.06449 3.55395 2.30434L2.3043 3.55352C2.06484 3.79336 2.02117 4.16715 2.19926 4.45535L3.36574 6.34258C3.09691 6.82937 2.88355 7.34984 2.72641 7.89418L0.563203 8.40453C0.233516 8.48301 0 8.7775 0 9.11687V10.8835C0 11.2225 0.233516 11.5178 0.563242 11.5955L2.72645 12.1058C2.88395 12.6506 3.09695 13.1706 3.36578 13.657L2.19891 15.5446C2.02121 15.8336 2.06449 16.207 2.30434 16.4469L3.55352 17.6961C3.79336 17.9359 4.16715 17.9796 4.45535 17.8011L6.34297 16.6342C6.8298 16.903 7.35023 17.1164 7.89461 17.2735L8.40492 19.4362C8.48305 19.7668 8.77793 20 9.11691 20H10.884C11.2229 20 11.5178 19.7668 11.5959 19.4362L12.1063 17.2735C12.6507 17.1164 13.1711 16.903 13.6575 16.6342L15.5447 17.8007C15.8337 17.9792 16.2067 17.9355 16.4465 17.6957L17.6961 16.4461C17.9355 16.2066 17.9792 15.8332 17.8007 15.5442L16.6343 13.6574C16.9035 13.171 17.1165 12.6506 17.274 12.1058L19.4367 11.5955C19.7673 11.5173 20 11.2229 20 10.8835V9.11641C20 8.77789 19.7669 8.48301 19.4363 8.40492ZM10.0002 11.84C8.98453 11.84 8.16047 11.0159 8.16047 9.9998C8.16047 8.98375 8.98457 8.15965 10.0002 8.15965C11.0163 8.15965 11.8404 8.98375 11.8404 9.9998C11.8404 11.0159 11.0163 11.84 10.0002 11.84Z" fill="white"/>
</svg>
