<svg width="82" height="63" viewBox="0 0 82 63" fill="none" xmlns="http://www.w3.org/2000/svg">
<rect width="81.6667" height="63" rx="6" fill="#3CBA53" fill-opacity="0.8"/>
<g clip-path="url(#clip0_512_105)">
<path d="M40.8333 33.875C47.6678 33.875 53.2083 28.3345 53.2083 21.5C53.2083 14.6655 47.6678 9.125 40.8333 9.125C33.9987 9.125 28.4583 14.6655 28.4583 21.5C28.4583 28.3345 33.9987 33.875 40.8333 33.875Z" stroke="white" stroke-width="2" stroke-miterlimit="10"/>
<path d="M35.7708 19.8125C36.7027 19.8125 37.4583 19.057 37.4583 18.125C37.4583 17.193 36.7027 16.4375 35.7708 16.4375C34.8388 16.4375 34.0833 17.193 34.0833 18.125C34.0833 19.057 34.8388 19.8125 35.7708 19.8125Z" fill="white"/>
<path d="M45.8958 19.8125C46.8277 19.8125 47.5833 19.057 47.5833 18.125C47.5833 17.193 46.8277 16.4375 45.8958 16.4375C44.9638 16.4375 44.2083 17.193 44.2083 18.125C44.2083 19.057 44.9638 19.8125 45.8958 19.8125Z" fill="white"/>
<path d="M35.7708 26H45.8958" stroke="white" stroke-width="2" stroke-miterlimit="10" stroke-linecap="round"/>
</g>
<path d="M19.9533 41.42C19.9213 41.564 19.8933 41.728 19.8693 41.912C19.8533 42.096 19.8373 42.276 19.8213 42.452C19.8133 42.628 19.8093 42.772 19.8093 42.884C19.8013 43.148 19.7973 43.42 19.7973 43.7C19.8053 43.98 19.8133 44.268 19.8213 44.564C19.8373 44.852 19.8573 45.14 19.8813 45.428C19.9373 46.004 20.0173 46.512 20.1213 46.952C20.2253 47.392 20.3613 47.736 20.5293 47.984C20.6973 48.224 20.9093 48.344 21.1653 48.344C21.3013 48.344 21.4333 48.268 21.5613 48.116C21.6973 47.964 21.8173 47.768 21.9213 47.528C22.0333 47.28 22.1293 47.02 22.2093 46.748C22.2973 46.476 22.3733 46.22 22.4373 45.98L23.6373 47.444C23.3733 48.14 23.1093 48.696 22.8453 49.112C22.5893 49.52 22.3213 49.816 22.0413 50C21.7613 50.176 21.4573 50.264 21.1293 50.264C20.6973 50.264 20.2853 50.12 19.8933 49.832C19.5093 49.544 19.1813 49.08 18.9093 48.44C18.6373 47.792 18.4453 46.932 18.3333 45.86C18.2933 45.492 18.2613 45.104 18.2373 44.696C18.2213 44.288 18.2093 43.9 18.2013 43.532C18.2013 43.164 18.2013 42.86 18.2013 42.62C18.2013 42.452 18.1933 42.252 18.1773 42.02C18.1613 41.788 18.1373 41.58 18.1053 41.396L19.9533 41.42ZM25.9533 41.696C26.1773 41.968 26.3933 42.3 26.6013 42.692C26.8093 43.084 27.0013 43.504 27.1773 43.952C27.3533 44.4 27.5093 44.86 27.6453 45.332C27.7813 45.796 27.8893 46.252 27.9693 46.7C28.0573 47.14 28.1133 47.544 28.1373 47.912L26.5533 48.524C26.5133 48.036 26.4413 47.504 26.3373 46.928C26.2333 46.352 26.0933 45.772 25.9173 45.188C25.7413 44.604 25.5293 44.052 25.2813 43.532C25.0413 43.012 24.7573 42.564 24.4293 42.188L25.9533 41.696ZM35.9973 40.292C35.9813 40.412 35.9653 40.548 35.9493 40.7C35.9413 40.844 35.9333 40.992 35.9253 41.144C35.9173 41.304 35.9093 41.52 35.9013 41.792C35.8933 42.056 35.8893 42.348 35.8893 42.668C35.8893 42.988 35.8893 43.304 35.8893 43.616C35.8893 43.928 35.8893 44.212 35.8893 44.468C35.8893 44.804 35.8973 45.18 35.9133 45.596C35.9293 46.004 35.9493 46.42 35.9733 46.844C36.0053 47.26 36.0293 47.652 36.0453 48.02C36.0693 48.38 36.0813 48.68 36.0813 48.92C36.0813 49.256 35.9933 49.564 35.8173 49.844C35.6413 50.116 35.3773 50.332 35.0253 50.492C34.6813 50.652 34.2453 50.732 33.7173 50.732C32.7573 50.732 32.0293 50.556 31.5333 50.204C31.0373 49.852 30.7893 49.36 30.7893 48.728C30.7893 48.32 30.9053 47.964 31.1373 47.66C31.3773 47.348 31.7173 47.104 32.1573 46.928C32.6053 46.752 33.1373 46.664 33.7533 46.664C34.4093 46.664 35.0213 46.736 35.5893 46.88C36.1653 47.016 36.6893 47.196 37.1613 47.42C37.6333 47.644 38.0533 47.88 38.4213 48.128C38.7893 48.376 39.1013 48.6 39.3573 48.8L38.4933 50.144C38.2053 49.872 37.8813 49.604 37.5213 49.34C37.1693 49.076 36.7813 48.836 36.3573 48.62C35.9413 48.404 35.4973 48.232 35.0253 48.104C34.5613 47.968 34.0693 47.9 33.5493 47.9C33.1333 47.9 32.8093 47.972 32.5773 48.116C32.3533 48.26 32.2413 48.436 32.2413 48.644C32.2413 48.796 32.2893 48.928 32.3853 49.04C32.4813 49.152 32.6213 49.236 32.8053 49.292C32.9893 49.348 33.2213 49.376 33.5013 49.376C33.7173 49.376 33.9013 49.352 34.0533 49.304C34.2133 49.256 34.3373 49.168 34.4253 49.04C34.5133 48.912 34.5573 48.732 34.5573 48.5C34.5573 48.324 34.5493 48.072 34.5333 47.744C34.5253 47.416 34.5133 47.056 34.4973 46.664C34.4813 46.264 34.4653 45.872 34.4493 45.488C34.4333 45.104 34.4253 44.764 34.4253 44.468C34.4253 44.18 34.4253 43.88 34.4253 43.568C34.4333 43.248 34.4373 42.932 34.4373 42.62C34.4373 42.308 34.4373 42.024 34.4373 41.768C34.4453 41.504 34.4493 41.288 34.4493 41.12C34.4493 41.008 34.4413 40.872 34.4253 40.712C34.4173 40.544 34.4013 40.404 34.3773 40.292H35.9973ZM31.0173 41.42C31.2333 41.452 31.4733 41.484 31.7373 41.516C32.0013 41.548 32.2693 41.58 32.5413 41.612C32.8213 41.636 33.0853 41.656 33.3333 41.672C33.5813 41.68 33.7973 41.684 33.9813 41.684C34.7973 41.684 35.6093 41.66 36.4173 41.612C37.2333 41.556 38.0773 41.456 38.9493 41.312L38.9373 42.692C38.5293 42.748 38.0573 42.8 37.5213 42.848C36.9853 42.896 36.4133 42.936 35.8053 42.968C35.2053 42.992 34.6013 43.004 33.9933 43.004C33.7453 43.004 33.4373 42.996 33.0693 42.98C32.7093 42.956 32.3493 42.928 31.9893 42.896C31.6293 42.856 31.3173 42.82 31.0533 42.788L31.0173 41.42ZM30.9573 44.012C31.1493 44.044 31.3773 44.076 31.6413 44.108C31.9053 44.14 32.1733 44.164 32.4453 44.18C32.7253 44.196 32.9893 44.212 33.2373 44.228C33.4853 44.236 33.6893 44.24 33.8493 44.24C34.5933 44.24 35.2653 44.224 35.8653 44.192C36.4733 44.16 37.0413 44.12 37.5693 44.072C38.0973 44.024 38.6053 43.968 39.0933 43.904L39.0813 45.32C38.6653 45.368 38.2613 45.408 37.8693 45.44C37.4853 45.472 37.0893 45.5 36.6813 45.524C36.2813 45.548 35.8493 45.564 35.3853 45.572C34.9213 45.58 34.4013 45.584 33.8253 45.584C33.5933 45.584 33.3053 45.58 32.9613 45.572C32.6173 45.556 32.2653 45.536 31.9053 45.512C31.5533 45.488 31.2413 45.46 30.9693 45.428L30.9573 44.012ZM43.9533 41.42C43.9213 41.564 43.8933 41.728 43.8693 41.912C43.8533 42.096 43.8373 42.276 43.8213 42.452C43.8133 42.628 43.8093 42.772 43.8093 42.884C43.8013 43.148 43.7973 43.42 43.7973 43.7C43.8053 43.98 43.8133 44.268 43.8213 44.564C43.8373 44.852 43.8573 45.14 43.8813 45.428C43.9373 46.004 44.0173 46.512 44.1213 46.952C44.2253 47.392 44.3613 47.736 44.5293 47.984C44.6973 48.224 44.9093 48.344 45.1653 48.344C45.3013 48.344 45.4333 48.268 45.5613 48.116C45.6973 47.964 45.8173 47.768 45.9213 47.528C46.0333 47.28 46.1293 47.02 46.2093 46.748C46.2973 46.476 46.3733 46.22 46.4373 45.98L47.6373 47.444C47.3733 48.14 47.1093 48.696 46.8453 49.112C46.5893 49.52 46.3213 49.816 46.0413 50C45.7613 50.176 45.4573 50.264 45.1293 50.264C44.6973 50.264 44.2853 50.12 43.8933 49.832C43.5093 49.544 43.1813 49.08 42.9093 48.44C42.6373 47.792 42.4453 46.932 42.3333 45.86C42.2933 45.492 42.2613 45.104 42.2373 44.696C42.2213 44.288 42.2093 43.9 42.2013 43.532C42.2013 43.164 42.2013 42.86 42.2013 42.62C42.2013 42.452 42.1933 42.252 42.1773 42.02C42.1613 41.788 42.1373 41.58 42.1053 41.396L43.9533 41.42ZM49.9533 41.696C50.1773 41.968 50.3933 42.3 50.6013 42.692C50.8093 43.084 51.0013 43.504 51.1773 43.952C51.3533 44.4 51.5093 44.86 51.6453 45.332C51.7813 45.796 51.8893 46.252 51.9693 46.7C52.0573 47.14 52.1133 47.544 52.1373 47.912L50.5533 48.524C50.5133 48.036 50.4413 47.504 50.3373 46.928C50.2333 46.352 50.0933 45.772 49.9173 45.188C49.7413 44.604 49.5293 44.052 49.2813 43.532C49.0413 43.012 48.7573 42.564 48.4293 42.188L49.9533 41.696ZM58.2693 40.436C58.2053 40.644 58.1493 40.852 58.1013 41.06C58.0613 41.26 58.0213 41.46 57.9813 41.66C57.9413 41.852 57.8933 42.072 57.8373 42.32C57.7893 42.568 57.7333 42.832 57.6693 43.112C57.6133 43.384 57.5493 43.66 57.4773 43.94C57.4133 44.22 57.3453 44.496 57.2733 44.768C57.2013 45.032 57.1333 45.276 57.0693 45.5C57.5573 45.228 58.0413 45.036 58.5213 44.924C59.0013 44.804 59.5093 44.744 60.0453 44.744C60.6933 44.744 61.2573 44.852 61.7373 45.068C62.2253 45.284 62.6013 45.584 62.8653 45.968C63.1373 46.352 63.2733 46.8 63.2733 47.312C63.2733 47.984 63.1173 48.552 62.8053 49.016C62.5013 49.48 62.0613 49.844 61.4853 50.108C60.9173 50.372 60.2333 50.54 59.4333 50.612C58.6413 50.684 57.7613 50.668 56.7933 50.564L56.3733 49.016C57.0293 49.128 57.6693 49.184 58.2933 49.184C58.9253 49.184 59.4933 49.124 59.9973 49.004C60.5013 48.884 60.9013 48.692 61.1973 48.428C61.5013 48.156 61.6533 47.8 61.6533 47.36C61.6533 47 61.5013 46.692 61.1973 46.436C60.8933 46.172 60.4493 46.04 59.8653 46.04C59.1693 46.04 58.5293 46.16 57.9453 46.4C57.3693 46.64 56.9013 46.988 56.5413 47.444C56.4853 47.532 56.4293 47.616 56.3733 47.696C56.3253 47.776 56.2693 47.868 56.2053 47.972L54.7893 47.468C55.0133 47.036 55.2213 46.544 55.4133 45.992C55.6053 45.44 55.7773 44.884 55.9293 44.324C56.0813 43.764 56.2053 43.244 56.3013 42.764C56.3973 42.276 56.4653 41.88 56.5053 41.576C56.5453 41.32 56.5693 41.104 56.5773 40.928C56.5853 40.744 56.5813 40.556 56.5653 40.364L58.2693 40.436ZM54.0813 41.84C54.4653 41.904 54.8813 41.96 55.3293 42.008C55.7773 42.048 56.1893 42.068 56.5653 42.068C56.9493 42.068 57.3693 42.056 57.8253 42.032C58.2893 42.008 58.7773 41.972 59.2893 41.924C59.8013 41.876 60.3133 41.816 60.8253 41.744C61.3453 41.664 61.8533 41.572 62.3493 41.468L62.3733 42.896C61.9893 42.96 61.5533 43.024 61.0653 43.088C60.5853 43.152 60.0813 43.212 59.5533 43.268C59.0253 43.316 58.5053 43.356 57.9933 43.388C57.4813 43.42 57.0093 43.436 56.5773 43.436C56.1133 43.436 55.6693 43.428 55.2453 43.412C54.8293 43.388 54.4413 43.36 54.0813 43.328V41.84Z" fill="white"/>
<defs>
<clipPath id="clip0_512_105">
<rect width="27" height="27" fill="white" transform="translate(27.3333 8)"/>
</clipPath>
</defs>
</svg>
