<svg width="82" height="63" viewBox="0 0 82 63" fill="none" xmlns="http://www.w3.org/2000/svg">
<rect width="81.6667" height="63" rx="6" fill="#F25D5D" fill-opacity="0.8"/>
<g clip-path="url(#clip0_512_87)">
<path d="M40.8334 33.875C47.6679 33.875 53.2084 28.3345 53.2084 21.5C53.2084 14.6655 47.6679 9.125 40.8334 9.125C33.9988 9.125 28.4584 14.6655 28.4584 21.5C28.4584 28.3345 33.9988 33.875 40.8334 33.875Z" stroke="white" stroke-width="2" stroke-miterlimit="10"/>
<path d="M46.3459 24.875C46.0877 26.1466 45.3979 27.2898 44.3932 28.1109C43.3886 28.9321 42.1309 29.3806 40.8334 29.3806C39.5359 29.3806 38.2783 28.9321 37.2736 28.1109C36.269 27.2898 35.5791 26.1466 35.3209 24.875H46.1772" stroke="white" stroke-width="2" stroke-linecap="round" stroke-linejoin="round"/>
<path d="M34.6459 15.875L37.4584 18.125L34.6459 20.375" stroke="white" stroke-width="2" stroke-linecap="round" stroke-linejoin="round"/>
<path d="M47.0209 15.875L44.2084 18.125L47.0209 20.375" stroke="white" stroke-width="2" stroke-linecap="round" stroke-linejoin="round"/>
</g>
<path d="M32.2534 42.476V42.968H37.3654V42.476H32.2534ZM32.2534 41.12V41.6H37.3654V41.12H32.2534ZM30.8734 40.184H38.8054V43.904H30.8734V40.184ZM29.4574 44.336H40.1854V45.476H29.4574V44.336ZM34.9654 45.92H38.8894V47.024H34.9654V45.92ZM31.3054 45.956H34.0294V46.952H31.3054V45.956ZM31.3054 47.468H34.0294V48.464H31.3054V47.468ZM36.4294 46.916C36.7654 47.652 37.2774 48.284 37.9654 48.812C38.6614 49.34 39.4894 49.716 40.4494 49.94C40.3614 50.028 40.2614 50.136 40.1494 50.264C40.0374 50.4 39.9334 50.54 39.8374 50.684C39.7414 50.828 39.6614 50.956 39.5974 51.068C38.5654 50.756 37.6894 50.276 36.9694 49.628C36.2574 48.98 35.6934 48.184 35.2774 47.24L36.4294 46.916ZM38.4574 45.92H38.7214L38.9614 45.884L39.8494 46.22C39.6094 47.052 39.2694 47.784 38.8294 48.416C38.3894 49.04 37.8694 49.568 37.2694 50C36.6774 50.44 36.0214 50.796 35.3014 51.068C35.2214 50.892 35.1054 50.692 34.9534 50.468C34.8014 50.252 34.6574 50.076 34.5214 49.94C34.9854 49.796 35.4254 49.604 35.8414 49.364C36.2654 49.124 36.6494 48.84 36.9934 48.512C37.3374 48.184 37.6334 47.82 37.8814 47.42C38.1374 47.02 38.3294 46.592 38.4574 46.136V45.92ZM29.3494 49.208C29.7574 49.184 30.2134 49.156 30.7174 49.124C31.2214 49.084 31.7534 49.044 32.3134 49.004C32.8734 48.956 33.4374 48.908 34.0054 48.86V50.036C33.1974 50.108 32.3934 50.18 31.5934 50.252C30.8014 50.332 30.0894 50.4 29.4574 50.456L29.3494 49.208ZM33.2974 44.708H34.6654V51.08H33.2974V44.708ZM30.4054 44.732H31.7134V49.64H30.4054V44.732ZM41.5654 40.796H52.1014V42.032H41.5654V40.796ZM46.0174 39.788H47.4934V41.408H46.0174V39.788ZM42.0334 45.644H50.8174V46.832H43.4374V51.08H42.0334V45.644ZM50.2774 45.644H51.7174V49.556C51.7174 49.884 51.6774 50.148 51.5974 50.348C51.5174 50.556 51.3614 50.716 51.1294 50.828C50.8974 50.932 50.6214 50.996 50.3014 51.02C49.9814 51.044 49.6014 51.056 49.1614 51.056C49.1374 50.856 49.0814 50.624 48.9934 50.36C48.9054 50.104 48.8134 49.888 48.7174 49.712C48.9974 49.72 49.2654 49.728 49.5214 49.736C49.7854 49.736 49.9574 49.732 50.0374 49.724C50.1334 49.716 50.1974 49.7 50.2294 49.676C50.2614 49.652 50.2774 49.604 50.2774 49.532V45.644ZM44.5174 47.384H45.7654V50.636H44.5174V47.384ZM45.1534 47.384H49.1254V50.084H45.1534V49.112H47.8654V48.356H45.1534V47.384ZM44.9014 43.448V44.18H48.6694V43.448H44.9014ZM43.5334 42.488H50.1334V45.14H43.5334V42.488Z" fill="white"/>
<defs>
<clipPath id="clip0_512_87">
<rect width="27" height="27" fill="white" transform="translate(27.3334 8)"/>
</clipPath>
</defs>
</svg>
