<svg width="82" height="63" viewBox="0 0 82 63" fill="none" xmlns="http://www.w3.org/2000/svg">
<rect width="81.6667" height="63" rx="6" fill="#F9A201" fill-opacity="0.99"/>
<g clip-path="url(#clip0_512_96)">
<path d="M40.8334 33.875C47.6679 33.875 53.2084 28.3345 53.2084 21.5C53.2084 14.6655 47.6679 9.125 40.8334 9.125C33.9988 9.125 28.4584 14.6655 28.4584 21.5C28.4584 28.3345 33.9988 33.875 40.8334 33.875Z" stroke="white" stroke-width="2" stroke-miterlimit="10"/>
<path d="M35.7709 19.8125C36.7029 19.8125 37.4584 19.057 37.4584 18.125C37.4584 17.193 36.7029 16.4375 35.7709 16.4375C34.8389 16.4375 34.0834 17.193 34.0834 18.125C34.0834 19.057 34.8389 19.8125 35.7709 19.8125Z" fill="white"/>
<path d="M45.8959 19.8125C46.8279 19.8125 47.5834 19.057 47.5834 18.125C47.5834 17.193 46.8279 16.4375 45.8959 16.4375C44.9639 16.4375 44.2084 17.193 44.2084 18.125C44.2084 19.057 44.9639 19.8125 45.8959 19.8125Z" fill="white"/>
<path d="M46.3459 23.75C46.0877 25.0216 45.3979 26.1648 44.3932 26.9859C43.3886 27.8071 42.1309 28.2556 40.8334 28.2556C39.5359 28.2556 38.2783 27.8071 37.2736 26.9859C36.269 26.1648 35.5791 25.0216 35.3209 23.75" stroke="white" stroke-width="2" stroke-miterlimit="10" stroke-linecap="round"/>
</g>
<path d="M23.9974 40.292C23.9814 40.412 23.9654 40.548 23.9494 40.7C23.9414 40.844 23.9334 40.992 23.9254 41.144C23.9174 41.304 23.9094 41.52 23.9014 41.792C23.8934 42.056 23.8894 42.348 23.8894 42.668C23.8894 42.988 23.8894 43.304 23.8894 43.616C23.8894 43.928 23.8894 44.212 23.8894 44.468C23.8894 44.804 23.8974 45.18 23.9134 45.596C23.9294 46.004 23.9494 46.42 23.9734 46.844C24.0054 47.26 24.0294 47.652 24.0454 48.02C24.0694 48.38 24.0814 48.68 24.0814 48.92C24.0814 49.256 23.9934 49.564 23.8174 49.844C23.6414 50.116 23.3774 50.332 23.0254 50.492C22.6814 50.652 22.2454 50.732 21.7174 50.732C20.7574 50.732 20.0294 50.556 19.5334 50.204C19.0374 49.852 18.7894 49.36 18.7894 48.728C18.7894 48.32 18.9054 47.964 19.1374 47.66C19.3774 47.348 19.7174 47.104 20.1574 46.928C20.6054 46.752 21.1374 46.664 21.7534 46.664C22.4094 46.664 23.0214 46.736 23.5894 46.88C24.1654 47.016 24.6894 47.196 25.1614 47.42C25.6334 47.644 26.0534 47.88 26.4214 48.128C26.7894 48.376 27.1014 48.6 27.3574 48.8L26.4934 50.144C26.2054 49.872 25.8814 49.604 25.5214 49.34C25.1694 49.076 24.7814 48.836 24.3574 48.62C23.9414 48.404 23.4974 48.232 23.0254 48.104C22.5614 47.968 22.0694 47.9 21.5494 47.9C21.1334 47.9 20.8094 47.972 20.5774 48.116C20.3534 48.26 20.2414 48.436 20.2414 48.644C20.2414 48.796 20.2894 48.928 20.3854 49.04C20.4814 49.152 20.6214 49.236 20.8054 49.292C20.9894 49.348 21.2214 49.376 21.5014 49.376C21.7174 49.376 21.9014 49.352 22.0534 49.304C22.2134 49.256 22.3374 49.168 22.4254 49.04C22.5134 48.912 22.5574 48.732 22.5574 48.5C22.5574 48.324 22.5494 48.072 22.5334 47.744C22.5254 47.416 22.5134 47.056 22.4974 46.664C22.4814 46.264 22.4654 45.872 22.4494 45.488C22.4334 45.104 22.4254 44.764 22.4254 44.468C22.4254 44.18 22.4254 43.88 22.4254 43.568C22.4334 43.248 22.4374 42.932 22.4374 42.62C22.4374 42.308 22.4374 42.024 22.4374 41.768C22.4454 41.504 22.4494 41.288 22.4494 41.12C22.4494 41.008 22.4414 40.872 22.4254 40.712C22.4174 40.544 22.4014 40.404 22.3774 40.292H23.9974ZM19.0174 41.42C19.2334 41.452 19.4734 41.484 19.7374 41.516C20.0014 41.548 20.2694 41.58 20.5414 41.612C20.8214 41.636 21.0854 41.656 21.3334 41.672C21.5814 41.68 21.7974 41.684 21.9814 41.684C22.7974 41.684 23.6094 41.66 24.4174 41.612C25.2334 41.556 26.0774 41.456 26.9494 41.312L26.9374 42.692C26.5294 42.748 26.0574 42.8 25.5214 42.848C24.9854 42.896 24.4134 42.936 23.8054 42.968C23.2054 42.992 22.6014 43.004 21.9934 43.004C21.7454 43.004 21.4374 42.996 21.0694 42.98C20.7094 42.956 20.3494 42.928 19.9894 42.896C19.6294 42.856 19.3174 42.82 19.0534 42.788L19.0174 41.42ZM18.9574 44.012C19.1494 44.044 19.3774 44.076 19.6414 44.108C19.9054 44.14 20.1734 44.164 20.4454 44.18C20.7254 44.196 20.9894 44.212 21.2374 44.228C21.4854 44.236 21.6894 44.24 21.8494 44.24C22.5934 44.24 23.2654 44.224 23.8654 44.192C24.4734 44.16 25.0414 44.12 25.5694 44.072C26.0974 44.024 26.6054 43.968 27.0934 43.904L27.0814 45.32C26.6654 45.368 26.2614 45.408 25.8694 45.44C25.4854 45.472 25.0894 45.5 24.6814 45.524C24.2814 45.548 23.8494 45.564 23.3854 45.572C22.9214 45.58 22.4014 45.584 21.8254 45.584C21.5934 45.584 21.3054 45.58 20.9614 45.572C20.6174 45.556 20.2654 45.536 19.9054 45.512C19.5534 45.488 19.2414 45.46 18.9694 45.428L18.9574 44.012ZM34.9654 41.888C34.9334 41.976 34.9054 42.068 34.8814 42.164C34.8654 42.252 34.8454 42.352 34.8214 42.464C34.7654 42.752 34.7054 43.1 34.6414 43.508C34.5854 43.908 34.5374 44.328 34.4974 44.768C34.4654 45.208 34.4494 45.632 34.4494 46.04C34.4494 46.84 34.5054 47.54 34.6174 48.14C34.7374 48.74 34.8774 49.284 35.0374 49.772L33.7894 50.132C33.6934 49.828 33.5974 49.472 33.5014 49.064C33.4134 48.648 33.3374 48.2 33.2734 47.72C33.2174 47.232 33.1894 46.744 33.1894 46.256C33.1894 45.752 33.2054 45.272 33.2374 44.816C33.2774 44.36 33.3214 43.936 33.3694 43.544C33.4174 43.144 33.4574 42.788 33.4894 42.476C33.4974 42.388 33.5014 42.284 33.5014 42.164C33.5094 42.044 33.5134 41.944 33.5134 41.864L34.9654 41.888ZM32.9974 43.016C33.8694 43.016 34.7374 42.984 35.6014 42.92C36.4654 42.848 37.2894 42.724 38.0734 42.548L38.0854 43.784C37.7494 43.84 37.3654 43.892 36.9334 43.94C36.5014 43.988 36.0534 44.032 35.5894 44.072C35.1254 44.104 34.6694 44.132 34.2214 44.156C33.7814 44.172 33.3734 44.18 32.9974 44.18C32.8294 44.18 32.6374 44.176 32.4214 44.168C32.2054 44.16 31.9934 44.148 31.7854 44.132C31.5774 44.116 31.3974 44.104 31.2454 44.096L31.2094 42.884C31.3214 42.9 31.4854 42.92 31.7014 42.944C31.9254 42.96 32.1574 42.976 32.3974 42.992C32.6374 43.008 32.8374 43.016 32.9974 43.016ZM37.4134 44.528C37.3974 44.592 37.3654 44.688 37.3174 44.816C37.2774 44.936 37.2334 45.056 37.1854 45.176C37.1454 45.288 37.1174 45.38 37.1014 45.452C36.8054 46.348 36.4374 47.108 35.9974 47.732C35.5654 48.348 35.0774 48.852 34.5334 49.244C34.1894 49.492 33.8094 49.7 33.3934 49.868C32.9854 50.036 32.5974 50.12 32.2294 50.12C31.9734 50.12 31.7334 50.076 31.5094 49.988C31.2934 49.9 31.1174 49.752 30.9814 49.544C30.8534 49.328 30.7894 49.036 30.7894 48.668C30.7894 48.156 30.9254 47.668 31.1974 47.204C31.4694 46.74 31.8254 46.332 32.2654 45.98C32.7134 45.62 33.1934 45.348 33.7054 45.164C34.0334 45.044 34.3854 44.952 34.7614 44.888C35.1454 44.816 35.5254 44.78 35.9014 44.78C36.5734 44.78 37.1574 44.9 37.6534 45.14C38.1494 45.372 38.5334 45.692 38.8054 46.1C39.0774 46.508 39.2134 46.972 39.2134 47.492C39.2134 47.94 39.1054 48.38 38.8894 48.812C38.6814 49.244 38.3334 49.624 37.8454 49.952C37.3654 50.28 36.7174 50.516 35.9014 50.66L35.1814 49.52C35.8214 49.448 36.3334 49.304 36.7174 49.088C37.1094 48.872 37.3934 48.616 37.5694 48.32C37.7534 48.016 37.8454 47.7 37.8454 47.372C37.8454 47.092 37.7694 46.84 37.6174 46.616C37.4654 46.384 37.2374 46.2 36.9334 46.064C36.6374 45.928 36.2654 45.86 35.8174 45.86C35.3774 45.86 34.9814 45.912 34.6294 46.016C34.2774 46.12 33.9854 46.224 33.7534 46.328C33.4574 46.464 33.1774 46.648 32.9134 46.88C32.6494 47.112 32.4334 47.364 32.2654 47.636C32.1054 47.9 32.0254 48.164 32.0254 48.428C32.0254 48.564 32.0614 48.676 32.1334 48.764C32.2134 48.844 32.3294 48.884 32.4814 48.884C32.6894 48.884 32.9374 48.816 33.2254 48.68C33.5214 48.536 33.8094 48.34 34.0894 48.092C34.4574 47.764 34.8094 47.368 35.1454 46.904C35.4894 46.432 35.7614 45.86 35.9614 45.188C35.9854 45.116 36.0094 45.02 36.0334 44.9C36.0654 44.772 36.0934 44.648 36.1174 44.528C36.1414 44.4 36.1574 44.3 36.1654 44.228L37.4134 44.528ZM47.9974 40.292C47.9814 40.412 47.9654 40.548 47.9494 40.7C47.9414 40.844 47.9334 40.992 47.9254 41.144C47.9174 41.304 47.9094 41.52 47.9014 41.792C47.8934 42.056 47.8894 42.348 47.8894 42.668C47.8894 42.988 47.8894 43.304 47.8894 43.616C47.8894 43.928 47.8894 44.212 47.8894 44.468C47.8894 44.804 47.8974 45.18 47.9134 45.596C47.9294 46.004 47.9494 46.42 47.9734 46.844C48.0054 47.26 48.0294 47.652 48.0454 48.02C48.0694 48.38 48.0814 48.68 48.0814 48.92C48.0814 49.256 47.9934 49.564 47.8174 49.844C47.6414 50.116 47.3774 50.332 47.0254 50.492C46.6814 50.652 46.2454 50.732 45.7174 50.732C44.7574 50.732 44.0294 50.556 43.5334 50.204C43.0374 49.852 42.7894 49.36 42.7894 48.728C42.7894 48.32 42.9054 47.964 43.1374 47.66C43.3774 47.348 43.7174 47.104 44.1574 46.928C44.6054 46.752 45.1374 46.664 45.7534 46.664C46.4094 46.664 47.0214 46.736 47.5894 46.88C48.1654 47.016 48.6894 47.196 49.1614 47.42C49.6334 47.644 50.0534 47.88 50.4214 48.128C50.7894 48.376 51.1014 48.6 51.3574 48.8L50.4934 50.144C50.2054 49.872 49.8814 49.604 49.5214 49.34C49.1694 49.076 48.7814 48.836 48.3574 48.62C47.9414 48.404 47.4974 48.232 47.0254 48.104C46.5614 47.968 46.0694 47.9 45.5494 47.9C45.1334 47.9 44.8094 47.972 44.5774 48.116C44.3534 48.26 44.2414 48.436 44.2414 48.644C44.2414 48.796 44.2894 48.928 44.3854 49.04C44.4814 49.152 44.6214 49.236 44.8054 49.292C44.9894 49.348 45.2214 49.376 45.5014 49.376C45.7174 49.376 45.9014 49.352 46.0534 49.304C46.2134 49.256 46.3374 49.168 46.4254 49.04C46.5134 48.912 46.5574 48.732 46.5574 48.5C46.5574 48.324 46.5494 48.072 46.5334 47.744C46.5254 47.416 46.5134 47.056 46.4974 46.664C46.4814 46.264 46.4654 45.872 46.4494 45.488C46.4334 45.104 46.4254 44.764 46.4254 44.468C46.4254 44.18 46.4254 43.88 46.4254 43.568C46.4334 43.248 46.4374 42.932 46.4374 42.62C46.4374 42.308 46.4374 42.024 46.4374 41.768C46.4454 41.504 46.4494 41.288 46.4494 41.12C46.4494 41.008 46.4414 40.872 46.4254 40.712C46.4174 40.544 46.4014 40.404 46.3774 40.292H47.9974ZM43.0174 41.42C43.2334 41.452 43.4734 41.484 43.7374 41.516C44.0014 41.548 44.2694 41.58 44.5414 41.612C44.8214 41.636 45.0854 41.656 45.3334 41.672C45.5814 41.68 45.7974 41.684 45.9814 41.684C46.7974 41.684 47.6094 41.66 48.4174 41.612C49.2334 41.556 50.0774 41.456 50.9494 41.312L50.9374 42.692C50.5294 42.748 50.0574 42.8 49.5214 42.848C48.9854 42.896 48.4134 42.936 47.8054 42.968C47.2054 42.992 46.6014 43.004 45.9934 43.004C45.7454 43.004 45.4374 42.996 45.0694 42.98C44.7094 42.956 44.3494 42.928 43.9894 42.896C43.6294 42.856 43.3174 42.82 43.0534 42.788L43.0174 41.42ZM42.9574 44.012C43.1494 44.044 43.3774 44.076 43.6414 44.108C43.9054 44.14 44.1734 44.164 44.4454 44.18C44.7254 44.196 44.9894 44.212 45.2374 44.228C45.4854 44.236 45.6894 44.24 45.8494 44.24C46.5934 44.24 47.2654 44.224 47.8654 44.192C48.4734 44.16 49.0414 44.12 49.5694 44.072C50.0974 44.024 50.6054 43.968 51.0934 43.904L51.0814 45.32C50.6654 45.368 50.2614 45.408 49.8694 45.44C49.4854 45.472 49.0894 45.5 48.6814 45.524C48.2814 45.548 47.8494 45.564 47.3854 45.572C46.9214 45.58 46.4014 45.584 45.8254 45.584C45.5934 45.584 45.3054 45.58 44.9614 45.572C44.6174 45.556 44.2654 45.536 43.9054 45.512C43.5534 45.488 43.2414 45.46 42.9694 45.428L42.9574 44.012ZM58.9654 41.888C58.9334 41.976 58.9054 42.068 58.8814 42.164C58.8654 42.252 58.8454 42.352 58.8214 42.464C58.7654 42.752 58.7054 43.1 58.6414 43.508C58.5854 43.908 58.5374 44.328 58.4974 44.768C58.4654 45.208 58.4494 45.632 58.4494 46.04C58.4494 46.84 58.5054 47.54 58.6174 48.14C58.7374 48.74 58.8774 49.284 59.0374 49.772L57.7894 50.132C57.6934 49.828 57.5974 49.472 57.5014 49.064C57.4134 48.648 57.3374 48.2 57.2734 47.72C57.2174 47.232 57.1894 46.744 57.1894 46.256C57.1894 45.752 57.2054 45.272 57.2374 44.816C57.2774 44.36 57.3214 43.936 57.3694 43.544C57.4174 43.144 57.4574 42.788 57.4894 42.476C57.4974 42.388 57.5014 42.284 57.5014 42.164C57.5094 42.044 57.5134 41.944 57.5134 41.864L58.9654 41.888ZM56.9974 43.016C57.8694 43.016 58.7374 42.984 59.6014 42.92C60.4654 42.848 61.2894 42.724 62.0734 42.548L62.0854 43.784C61.7494 43.84 61.3654 43.892 60.9334 43.94C60.5014 43.988 60.0534 44.032 59.5894 44.072C59.1254 44.104 58.6694 44.132 58.2214 44.156C57.7814 44.172 57.3734 44.18 56.9974 44.18C56.8294 44.18 56.6374 44.176 56.4214 44.168C56.2054 44.16 55.9934 44.148 55.7854 44.132C55.5774 44.116 55.3974 44.104 55.2454 44.096L55.2094 42.884C55.3214 42.9 55.4854 42.92 55.7014 42.944C55.9254 42.96 56.1574 42.976 56.3974 42.992C56.6374 43.008 56.8374 43.016 56.9974 43.016ZM61.4134 44.528C61.3974 44.592 61.3654 44.688 61.3174 44.816C61.2774 44.936 61.2334 45.056 61.1854 45.176C61.1454 45.288 61.1174 45.38 61.1014 45.452C60.8054 46.348 60.4374 47.108 59.9974 47.732C59.5654 48.348 59.0774 48.852 58.5334 49.244C58.1894 49.492 57.8094 49.7 57.3934 49.868C56.9854 50.036 56.5974 50.12 56.2294 50.12C55.9734 50.12 55.7334 50.076 55.5094 49.988C55.2934 49.9 55.1174 49.752 54.9814 49.544C54.8534 49.328 54.7894 49.036 54.7894 48.668C54.7894 48.156 54.9254 47.668 55.1974 47.204C55.4694 46.74 55.8254 46.332 56.2654 45.98C56.7134 45.62 57.1934 45.348 57.7054 45.164C58.0334 45.044 58.3854 44.952 58.7614 44.888C59.1454 44.816 59.5254 44.78 59.9014 44.78C60.5734 44.78 61.1574 44.9 61.6534 45.14C62.1494 45.372 62.5334 45.692 62.8054 46.1C63.0774 46.508 63.2134 46.972 63.2134 47.492C63.2134 47.94 63.1054 48.38 62.8894 48.812C62.6814 49.244 62.3334 49.624 61.8454 49.952C61.3654 50.28 60.7174 50.516 59.9014 50.66L59.1814 49.52C59.8214 49.448 60.3334 49.304 60.7174 49.088C61.1094 48.872 61.3934 48.616 61.5694 48.32C61.7534 48.016 61.8454 47.7 61.8454 47.372C61.8454 47.092 61.7694 46.84 61.6174 46.616C61.4654 46.384 61.2374 46.2 60.9334 46.064C60.6374 45.928 60.2654 45.86 59.8174 45.86C59.3774 45.86 58.9814 45.912 58.6294 46.016C58.2774 46.12 57.9854 46.224 57.7534 46.328C57.4574 46.464 57.1774 46.648 56.9134 46.88C56.6494 47.112 56.4334 47.364 56.2654 47.636C56.1054 47.9 56.0254 48.164 56.0254 48.428C56.0254 48.564 56.0614 48.676 56.1334 48.764C56.2134 48.844 56.3294 48.884 56.4814 48.884C56.6894 48.884 56.9374 48.816 57.2254 48.68C57.5214 48.536 57.8094 48.34 58.0894 48.092C58.4574 47.764 58.8094 47.368 59.1454 46.904C59.4894 46.432 59.7614 45.86 59.9614 45.188C59.9854 45.116 60.0094 45.02 60.0334 44.9C60.0654 44.772 60.0934 44.648 60.1174 44.528C60.1414 44.4 60.1574 44.3 60.1654 44.228L61.4134 44.528Z" fill="white"/>
<defs>
<clipPath id="clip0_512_96">
<rect width="27" height="27" fill="white" transform="translate(27.3334 8)"/>
</clipPath>
</defs>
</svg>
